<svg xmlns="http://www.w3.org/2000/svg" xmlns:xlink="http://www.w3.org/1999/xlink" width="500" zoomAndPan="magnify" viewBox="0 0 375 374.999991" height="500" preserveAspectRatio="xMidYMid meet" version="1.2"><defs><clipPath id="48e03bf47c"><path d="M 137.511719 171.601562 L 167.921875 171.601562 L 167.921875 193.65625 L 137.511719 193.65625 Z M 137.511719 171.601562 "/></clipPath><clipPath id="2725acb2d4"><path d="M 144.261719 171.601562 L 161.164062 171.601562 C 164.894531 171.601562 167.914062 174.625 167.914062 178.351562 L 167.914062 186.90625 C 167.914062 190.636719 164.894531 193.65625 161.164062 193.65625 L 144.261719 193.65625 C 140.535156 193.65625 137.511719 190.636719 137.511719 186.90625 L 137.511719 178.351562 C 137.511719 174.625 140.535156 171.601562 144.261719 171.601562 Z M 144.261719 171.601562 "/></clipPath></defs><g id="b3729c6ca7"><path style="fill:none;stroke-width:2;stroke-linecap:round;stroke-linejoin:round;stroke:#000000;stroke-opacity:1;stroke-miterlimit:4;" d="M 3.999805 6.000232 L 19.999806 6.000232 C 20.131056 6.000232 20.261169 6.012732 20.390147 6.0383 C 20.519124 6.063868 20.644124 6.101936 20.765147 6.152504 C 20.886738 6.202504 21.002078 6.263868 21.111169 6.337163 C 21.22026 6.409891 21.321397 6.492845 21.41401 6.586027 C 21.507192 6.678641 21.590147 6.779777 21.662874 6.888868 C 21.736169 6.997959 21.797533 7.1133 21.847533 7.234891 C 21.898101 7.355914 21.936169 7.480914 21.961738 7.609891 C 21.987306 7.738868 21.999806 7.868414 21.999806 8.000232 L 21.999806 16.000232 C 21.999806 16.131482 21.987306 16.261596 21.961738 16.390005 C 21.936169 16.518982 21.898101 16.643982 21.847533 16.765573 C 21.797533 16.886596 21.736169 17.001937 21.662874 17.111028 C 21.590147 17.220118 21.507192 17.321255 21.41401 17.414437 C 21.321397 17.50705 21.22026 17.590005 21.111169 17.662732 C 21.002078 17.736028 20.886738 17.797391 20.765147 17.847959 C 20.644124 17.897959 20.519124 17.936028 20.390147 17.961596 C 20.261169 17.987164 20.131056 18.000232 19.999806 18.000232 L 3.999805 18.000232 C 3.868555 18.000232 3.738441 17.987164 3.610032 17.961596 C 3.481055 17.936028 3.356055 17.897959 3.234464 17.847959 C 3.113441 17.797391 2.9981 17.736028 2.88901 17.662732 C 2.779919 17.590005 2.678782 17.50705 2.5856 17.414437 C 2.492987 17.321255 2.410032 17.220118 2.337305 17.111028 C 2.26401 17.001937 2.202646 16.886596 2.152078 16.765573 C 2.102078 16.643982 2.064009 16.518982 2.038441 16.390005 C 2.012873 16.261596 1.999805 16.131482 1.999805 16.000232 L 1.999805 8.000232 C 1.999805 7.868414 2.012873 7.738868 2.038441 7.609891 C 2.064009 7.480914 2.102078 7.355914 2.152078 7.234891 C 2.202646 7.1133 2.26401 6.997959 2.337305 6.888868 C 2.410032 6.779777 2.492987 6.678641 2.5856 6.586027 C 2.678782 6.492845 2.779919 6.409891 2.88901 6.337163 C 2.9981 6.263868 3.113441 6.202504 3.234464 6.152504 C 3.356055 6.101936 3.481055 6.063868 3.610032 6.0383 C 3.738441 6.012732 3.868555 6.000232 3.999805 6.000232 Z M 3.999805 6.000232 " transform="matrix(6.875,0,0,6.875,105.020873,111.178097)"/><g clip-rule="nonzero" clip-path="url(#48e03bf47c)"><g clip-rule="nonzero" clip-path="url(#2725acb2d4)"><path style=" stroke:none;fill-rule:nonzero;fill:#000000;fill-opacity:1;" d="M 137.511719 171.601562 L 167.921875 171.601562 L 167.921875 193.65625 L 137.511719 193.65625 Z M 137.511719 171.601562 "/></g></g></g></svg>