<svg xmlns="http://www.w3.org/2000/svg" xmlns:xlink="http://www.w3.org/1999/xlink" width="500" zoomAndPan="magnify" viewBox="0 0 375 374.999991" height="500" preserveAspectRatio="xMidYMid meet" version="1.2"><defs><clipPath id="822967631c"><path d="M 137.511719 171.601562 L 167.921875 171.601562 L 167.921875 193.65625 L 137.511719 193.65625 Z M 137.511719 171.601562 "/></clipPath><clipPath id="10f4adea39"><path d="M 144.261719 171.601562 L 161.164062 171.601562 C 164.894531 171.601562 167.914062 174.625 167.914062 178.351562 L 167.914062 186.90625 C 167.914062 190.636719 164.894531 193.65625 161.164062 193.65625 L 144.261719 193.65625 C 140.535156 193.65625 137.511719 190.636719 137.511719 186.90625 L 137.511719 178.351562 C 137.511719 174.625 140.535156 171.601562 144.261719 171.601562 Z M 144.261719 171.601562 "/></clipPath><clipPath id="47e06f6a4c"><path d="M 137.511719 206.179688 L 233.324219 206.179688 L 233.324219 218.179688 L 137.511719 218.179688 Z M 137.511719 206.179688 "/></clipPath><clipPath id="4f81a86de0"><path d="M 143.511719 206.179688 L 227.3125 206.179688 C 228.90625 206.179688 230.429688 206.8125 231.558594 207.9375 C 232.683594 209.0625 233.3125 210.589844 233.3125 212.179688 C 233.3125 213.773438 232.683594 215.296875 231.558594 216.421875 C 230.429688 217.546875 228.90625 218.179688 227.3125 218.179688 L 143.511719 218.179688 C 141.921875 218.179688 140.394531 217.546875 139.269531 216.421875 C 138.144531 215.296875 137.511719 213.773438 137.511719 212.179688 C 137.511719 210.589844 138.144531 209.0625 139.269531 207.9375 C 140.394531 206.8125 141.921875 206.179688 143.511719 206.179688 Z M 143.511719 206.179688 "/></clipPath></defs><g id="c914ffeb91"><path style="fill:none;stroke-width:2;stroke-linecap:round;stroke-linejoin:round;stroke:#000000;stroke-opacity:1;stroke-miterlimit:4;" d="M 3.999805 6.000229 L 19.999806 6.000229 C 20.131056 6.000229 20.261169 6.012729 20.390147 6.038297 C 20.519124 6.063865 20.644124 6.101933 20.765147 6.152501 C 20.886738 6.202501 21.002078 6.263865 21.111169 6.33716 C 21.22026 6.409888 21.321397 6.492842 21.41401 6.586024 C 21.507192 6.678638 21.590147 6.779774 21.662874 6.888865 C 21.736169 6.997956 21.797533 7.113297 21.847533 7.234888 C 21.898101 7.35591 21.936169 7.48091 21.961738 7.609888 C 21.987306 7.738865 21.999806 7.86841 21.999806 8.000229 L 21.999806 16.000229 C 21.999806 16.131479 21.987306 16.261593 21.961738 16.390002 C 21.936169 16.518979 21.898101 16.643979 21.847533 16.76557 C 21.797533 16.886593 21.736169 17.001934 21.662874 17.111024 C 21.590147 17.220115 21.507192 17.321252 21.41401 17.414434 C 21.321397 17.507047 21.22026 17.590002 21.111169 17.662729 C 21.002078 17.736024 20.886738 17.797388 20.765147 17.847956 C 20.644124 17.897956 20.519124 17.936024 20.390147 17.961593 C 20.261169 17.987161 20.131056 18.000229 19.999806 18.000229 L 3.999805 18.000229 C 3.868555 18.000229 3.738441 17.987161 3.610032 17.961593 C 3.481055 17.936024 3.356055 17.897956 3.234464 17.847956 C 3.113441 17.797388 2.9981 17.736024 2.88901 17.662729 C 2.779919 17.590002 2.678782 17.507047 2.5856 17.414434 C 2.492987 17.321252 2.410032 17.220115 2.337305 17.111024 C 2.26401 17.001934 2.202646 16.886593 2.152078 16.76557 C 2.102078 16.643979 2.064009 16.518979 2.038441 16.390002 C 2.012873 16.261593 1.999805 16.131479 1.999805 16.000229 L 1.999805 8.000229 C 1.999805 7.86841 2.012873 7.738865 2.038441 7.609888 C 2.064009 7.48091 2.102078 7.35591 2.152078 7.234888 C 2.202646 7.113297 2.26401 6.997956 2.337305 6.888865 C 2.410032 6.779774 2.492987 6.678638 2.5856 6.586024 C 2.678782 6.492842 2.779919 6.409888 2.88901 6.33716 C 2.9981 6.263865 3.113441 6.202501 3.234464 6.152501 C 3.356055 6.101933 3.481055 6.063865 3.610032 6.038297 C 3.738441 6.012729 3.868555 6.000229 3.999805 6.000229 Z M 3.999805 6.000229 " transform="matrix(6.875,0,0,6.875,105.020873,111.178118)"/><g clip-rule="nonzero" clip-path="url(#822967631c)"><g clip-rule="nonzero" clip-path="url(#10f4adea39)"><path style=" stroke:none;fill-rule:nonzero;fill:#000000;fill-opacity:1;" d="M 137.511719 171.601562 L 167.921875 171.601562 L 167.921875 193.65625 L 137.511719 193.65625 Z M 137.511719 171.601562 "/></g></g><g clip-rule="nonzero" clip-path="url(#47e06f6a4c)"><g clip-rule="nonzero" clip-path="url(#4f81a86de0)"><path style=" stroke:none;fill-rule:nonzero;fill:#000000;fill-opacity:1;" d="M 137.511719 206.179688 L 233.324219 206.179688 L 233.324219 218.179688 L 137.511719 218.179688 Z M 137.511719 206.179688 "/></g></g></g></svg>