<svg xmlns="http://www.w3.org/2000/svg" xmlns:xlink="http://www.w3.org/1999/xlink" width="500" zoomAndPan="magnify" viewBox="0 0 375 374.999991" height="500" preserveAspectRatio="xMidYMid meet" version="1.2"><defs/><g id="7c5b052cd8"><g style="fill:#db4c2a;fill-opacity:1;"><g transform="translate(12.19785, 218.308776)"><path style="stroke:none" d="M 63.09375 -47.515625 C 63.164062 -46.734375 63.179688 -45.414062 63.140625 -43.5625 C 63.109375 -41.707031 63.039062 -39.851562 62.9375 -38 C 62.832031 -36.15625 62.671875 -34.84375 62.453125 -34.0625 C 62.097656 -32.207031 61.507812 -30.25 60.6875 -28.1875 C 59.875 -26.125 58.539062 -24.128906 56.6875 -22.203125 C 54.90625 -20.359375 53.335938 -19.023438 51.984375 -18.203125 C 50.640625 -17.378906 49.503906 -16.722656 48.578125 -16.234375 C 47.441406 -15.585938 45.820312 -15.03125 43.71875 -14.5625 C 41.625 -14.101562 39.597656 -13.75 37.640625 -13.5 C 35.679688 -13.25 34.3125 -13.125 33.53125 -13.125 C 31.882812 -13.125 30.832031 -12.820312 30.375 -12.21875 C 29.914062 -11.613281 29.613281 -10.566406 29.46875 -9.078125 C 29.320312 -8.148438 29.25 -6.921875 29.25 -5.390625 C 29.25 -3.859375 29.25 -2.488281 29.25 -1.28125 C 29.25 -0.425781 28.929688 0 28.296875 0 L 3.84375 0 C 3.132812 0 2.78125 -0.425781 2.78125 -1.28125 C 2.78125 -1.28125 2.796875 -2.132812 2.828125 -3.84375 C 2.859375 -5.550781 2.910156 -7.648438 2.984375 -10.140625 C 3.054688 -12.628906 3.109375 -15.082031 3.140625 -17.5 C 3.179688 -19.925781 3.203125 -21.921875 3.203125 -23.484375 C 3.273438 -29.460938 3.253906 -35.457031 3.140625 -41.46875 C 3.035156 -47.488281 2.984375 -53.523438 2.984375 -59.578125 C 2.910156 -61.921875 2.875 -64.269531 2.875 -66.625 C 2.875 -66.976562 3.085938 -67.15625 3.515625 -67.15625 L 44.734375 -67.15625 C 46.015625 -67.15625 47.5625 -66.921875 49.375 -66.453125 C 51.195312 -65.992188 53.316406 -64.835938 55.734375 -62.984375 C 57.367188 -61.703125 58.679688 -60.132812 59.671875 -58.28125 C 60.671875 -56.4375 61.4375 -54.550781 61.96875 -52.625 C 62.507812 -50.707031 62.882812 -49.003906 63.09375 -47.515625 Z M 36.1875 -46.765625 C 36.1875 -47.265625 36.148438 -47.90625 36.078125 -48.6875 C 36.015625 -49.46875 35.769531 -50.160156 35.34375 -50.765625 C 34.914062 -51.367188 34.203125 -51.671875 33.203125 -51.671875 C 32.203125 -51.671875 31.472656 -51.347656 31.015625 -50.703125 C 30.554688 -50.066406 30.269531 -49.375 30.15625 -48.625 C 30.050781 -47.882812 30 -47.300781 30 -46.875 C 29.925781 -46.226562 29.867188 -45.175781 29.828125 -43.71875 C 29.796875 -42.257812 29.765625 -40.800781 29.734375 -39.34375 C 29.703125 -37.882812 29.71875 -36.867188 29.78125 -36.296875 C 29.78125 -35.796875 29.832031 -35.132812 29.9375 -34.3125 C 30.050781 -33.5 30.320312 -32.753906 30.75 -32.078125 C 31.175781 -31.398438 31.921875 -31.0625 32.984375 -31.0625 C 34.484375 -31.0625 35.375 -31.59375 35.65625 -32.65625 C 35.945312 -33.726562 36.125 -34.585938 36.1875 -35.234375 C 36.1875 -35.941406 36.203125 -37.113281 36.234375 -38.75 C 36.273438 -40.394531 36.296875 -42 36.296875 -43.5625 C 36.296875 -45.125 36.257812 -46.191406 36.1875 -46.765625 Z M 36.1875 -46.765625 "/></g></g><g style="fill:#db4c2a;fill-opacity:1;"><g transform="translate(74.436663, 218.308776)"><path style="stroke:none" d="M 3.203125 -67.15625 L 32.78125 -67.15625 C 33.5625 -67.15625 33.953125 -66.726562 33.953125 -65.875 C 33.734375 -63.8125 33.609375 -60.960938 33.578125 -57.328125 C 33.546875 -53.703125 33.53125 -49.769531 33.53125 -45.53125 C 33.53125 -41.300781 33.5625 -37.175781 33.625 -33.15625 C 33.695312 -29.132812 33.75 -25.59375 33.78125 -22.53125 C 33.820312 -19.46875 33.878906 -17.332031 33.953125 -16.125 C 33.953125 -13.632812 34.019531 -11.160156 34.15625 -8.703125 C 34.300781 -6.242188 34.484375 -3.769531 34.703125 -1.28125 C 34.773438 -0.425781 34.382812 0 33.53125 0 L 3.3125 0 C 3.019531 0 2.910156 -0.175781 2.984375 -0.53125 C 3.128906 -1.457031 3.238281 -3.164062 3.3125 -5.65625 C 3.382812 -8.144531 3.421875 -10.9375 3.421875 -14.03125 C 3.421875 -17.132812 3.398438 -20.054688 3.359375 -22.796875 C 3.328125 -25.535156 3.273438 -27.617188 3.203125 -29.046875 C 3.203125 -30.753906 3.179688 -32.992188 3.140625 -35.765625 C 3.109375 -38.546875 3.070312 -41.535156 3.03125 -44.734375 C 3 -47.941406 2.960938 -51.054688 2.921875 -54.078125 C 2.890625 -57.097656 2.859375 -59.75 2.828125 -62.03125 C 2.796875 -64.3125 2.78125 -65.878906 2.78125 -66.734375 C 2.84375 -66.796875 2.984375 -66.9375 3.203125 -67.15625 Z M 3.203125 -67.15625 "/></g></g><g style="fill:#db4c2a;fill-opacity:1;"><g transform="translate(108.171361, 218.308776)"><path style="stroke:none" d="M 63.09375 -30.53125 C 63.09375 -28.820312 63.070312 -26.738281 63.03125 -24.28125 C 63 -21.832031 62.984375 -19.269531 62.984375 -16.59375 C 62.984375 -13.925781 62.96875 -11.414062 62.9375 -9.0625 C 62.90625 -6.71875 62.890625 -4.742188 62.890625 -3.140625 C 62.890625 -1.546875 62.921875 -0.601562 62.984375 -0.3125 C 62.984375 -0.101562 62.914062 0 62.78125 0 L 35.234375 0 C 35.085938 0 35.015625 -0.0703125 35.015625 -0.21875 C 34.734375 -1.070312 34.46875 -1.925781 34.21875 -2.78125 C 33.96875 -3.632812 33.703125 -4.488281 33.421875 -5.34375 C 32.773438 -7.113281 32.253906 -9.191406 31.859375 -11.578125 C 31.472656 -13.960938 30.890625 -15.867188 30.109375 -17.296875 C 29.753906 -18.078125 29.238281 -18.269531 28.5625 -17.875 C 27.882812 -17.488281 27.546875 -16.832031 27.546875 -15.90625 C 27.398438 -13.625 27.378906 -11.023438 27.484375 -8.109375 C 27.597656 -5.191406 27.691406 -2.59375 27.765625 -0.3125 C 27.765625 -0.101562 27.691406 0 27.546875 0 L 2.984375 -0.109375 C 2.847656 -0.109375 2.78125 -0.175781 2.78125 -0.3125 C 2.78125 -6.226562 2.847656 -12.101562 2.984375 -17.9375 C 3.128906 -23.769531 3.203125 -29.640625 3.203125 -35.546875 C 3.203125 -37.546875 3.179688 -39.894531 3.140625 -42.59375 C 3.109375 -45.300781 3.09375 -48.0625 3.09375 -50.875 C 3.09375 -53.6875 3.070312 -56.316406 3.03125 -58.765625 C 3 -61.222656 2.960938 -63.195312 2.921875 -64.6875 C 2.890625 -66.1875 2.875 -66.9375 2.875 -66.9375 C 2.875 -67.082031 2.945312 -67.15625 3.09375 -67.15625 L 29.890625 -67.15625 C 29.960938 -67.15625 30.035156 -67.082031 30.109375 -66.9375 C 30.609375 -65.300781 31.070312 -63.328125 31.5 -61.015625 C 31.925781 -58.703125 32.382812 -56.390625 32.875 -54.078125 C 33.375 -51.765625 33.945312 -49.828125 34.59375 -48.265625 C 34.875 -47.335938 35.441406 -47.050781 36.296875 -47.40625 C 36.941406 -47.613281 37.300781 -48.253906 37.375 -49.328125 C 37.507812 -50.816406 37.59375 -52.628906 37.625 -54.765625 C 37.664062 -56.898438 37.6875 -59.070312 37.6875 -61.28125 C 37.6875 -63.488281 37.6875 -65.335938 37.6875 -66.828125 C 37.6875 -67.046875 37.757812 -67.15625 37.90625 -67.15625 L 62.984375 -67.15625 C 63.128906 -67.15625 63.203125 -67.046875 63.203125 -66.828125 C 63.203125 -66.765625 63.203125 -66.695312 63.203125 -66.625 C 63.203125 -60.570312 63.179688 -54.535156 63.140625 -48.515625 C 63.109375 -42.503906 63.09375 -36.507812 63.09375 -30.53125 Z M 63.09375 -30.53125 "/></g></g><g style="fill:#db4c2a;fill-opacity:1;"><g transform="translate(170.837209, 218.308776)"><path style="stroke:none" d="M 62.25 -66.9375 C 62.25 -64.09375 62.316406 -61.226562 62.453125 -58.34375 C 62.597656 -55.457031 62.597656 -52.59375 62.453125 -49.75 C 62.378906 -48.394531 62.304688 -47.023438 62.234375 -45.640625 C 62.171875 -44.253906 62.175781 -42.847656 62.25 -41.421875 C 62.25 -40.785156 61.960938 -40.429688 61.390625 -40.359375 C 60.253906 -40.210938 58.921875 -40.15625 57.390625 -40.1875 C 55.859375 -40.226562 54.414062 -40.226562 53.0625 -40.1875 C 51.707031 -40.15625 50.816406 -40 50.390625 -39.71875 C 50.179688 -39.570312 49.929688 -39.335938 49.640625 -39.015625 C 49.359375 -38.703125 49.144531 -38.222656 49 -37.578125 C 48.9375 -37.015625 48.867188 -35.769531 48.796875 -33.84375 C 48.722656 -31.925781 48.6875 -29.628906 48.6875 -26.953125 C 48.6875 -24.285156 48.6875 -21.507812 48.6875 -18.625 C 48.6875 -15.75 48.6875 -13.03125 48.6875 -10.46875 C 48.6875 -7.90625 48.6875 -5.769531 48.6875 -4.0625 C 48.6875 -2.351562 48.722656 -1.390625 48.796875 -1.171875 C 48.796875 -0.390625 48.472656 0 47.828125 0 L 18.046875 0 C 17.472656 0 17.148438 -0.351562 17.078125 -1.0625 C 17.078125 -1.988281 17.09375 -3.554688 17.125 -5.765625 C 17.164062 -7.972656 17.222656 -10.460938 17.296875 -13.234375 C 17.367188 -16.015625 17.4375 -18.773438 17.5 -21.515625 C 17.570312 -24.253906 17.625 -26.617188 17.65625 -28.609375 C 17.695312 -30.609375 17.679688 -31.890625 17.609375 -32.453125 C 17.472656 -33.523438 17.421875 -34.59375 17.453125 -35.65625 C 17.492188 -36.726562 17.117188 -37.65625 16.328125 -38.4375 C 15.691406 -39.007812 15 -39.414062 14.25 -39.65625 C 13.5 -39.90625 12.734375 -40.066406 11.953125 -40.140625 C 11.316406 -40.210938 10.359375 -40.25 9.078125 -40.25 C 7.796875 -40.25 6.640625 -40.25 5.609375 -40.25 C 4.578125 -40.25 4.0625 -40.25 4.0625 -40.25 C 3.414062 -40.25 3.09375 -40.601562 3.09375 -41.3125 C 3.09375 -41.3125 3.09375 -41.789062 3.09375 -42.75 C 3.09375 -43.71875 3.070312 -44.785156 3.03125 -45.953125 C 3 -47.128906 2.945312 -48.039062 2.875 -48.6875 C 2.8125 -49.6875 2.742188 -51.128906 2.671875 -53.015625 C 2.597656 -54.898438 2.5625 -56.851562 2.5625 -58.875 C 2.5625 -60.90625 2.5625 -62.648438 2.5625 -64.109375 C 2.5625 -65.566406 2.5625 -66.367188 2.5625 -66.515625 C 2.5625 -66.941406 2.878906 -67.15625 3.515625 -67.15625 L 62.03125 -67.15625 C 62.03125 -67.15625 62.066406 -67.132812 62.140625 -67.09375 C 62.210938 -67.0625 62.25 -67.007812 62.25 -66.9375 Z M 62.25 -66.9375 "/></g></g><g style="fill:#db4c2a;fill-opacity:1;"><g transform="translate(232.542235, 218.308776)"><path style="stroke:none" d="M 64.59375 -5.875 C 64.800781 -4.875 65.046875 -3.894531 65.328125 -2.9375 C 65.617188 -1.976562 65.90625 -1 66.1875 0 L 37.15625 0 C 37.082031 -0.5 37.046875 -0.976562 37.046875 -1.4375 C 37.046875 -1.90625 37.046875 -2.382812 37.046875 -2.875 C 36.835938 -4.875 36.640625 -6.601562 36.453125 -8.0625 C 36.273438 -9.519531 36.007812 -11.101562 35.65625 -12.8125 C 35.300781 -14.164062 35.085938 -15.179688 35.015625 -15.859375 C 34.941406 -16.535156 34.019531 -16.90625 32.25 -16.96875 C 30.96875 -17.039062 30.179688 -16.5625 29.890625 -15.53125 C 29.609375 -14.5 29.359375 -12.878906 29.140625 -10.671875 C 29.003906 -8.890625 28.863281 -7.109375 28.71875 -5.328125 C 28.570312 -3.554688 28.5 -1.78125 28.5 0 L 2.453125 0 C 3.585938 -4.976562 4.53125 -10.007812 5.28125 -15.09375 C 6.03125 -20.1875 6.796875 -25.265625 7.578125 -30.328125 C 8.359375 -35.585938 9.367188 -40.796875 10.609375 -45.953125 C 11.859375 -51.117188 12.84375 -56.367188 13.5625 -61.703125 C 13.769531 -63.554688 13.945312 -65.375 14.09375 -67.15625 L 52.640625 -67.15625 C 53.128906 -62.101562 53.816406 -57.117188 54.703125 -52.203125 C 55.597656 -47.296875 56.546875 -42.421875 57.546875 -37.578125 C 58.679688 -32.316406 59.800781 -27.015625 60.90625 -21.671875 C 62.007812 -16.335938 63.238281 -11.070312 64.59375 -5.875 Z M 31.609375 -46.125 C 31.242188 -43.207031 30.921875 -40.625 30.640625 -38.375 C 30.359375 -36.132812 30.375 -34.351562 30.6875 -33.03125 C 31.007812 -31.71875 31.847656 -31.03125 33.203125 -30.96875 C 33.273438 -30.96875 33.3125 -30.96875 33.3125 -30.96875 C 33.457031 -30.96875 33.597656 -31.054688 33.734375 -31.234375 C 33.878906 -31.410156 34.023438 -31.535156 34.171875 -31.609375 C 34.597656 -31.671875 34.84375 -32.144531 34.90625 -33.03125 C 34.976562 -33.925781 34.992188 -34.960938 34.953125 -36.140625 C 34.921875 -37.316406 34.875 -38.332031 34.8125 -39.1875 C 34.738281 -40.601562 34.613281 -42.023438 34.4375 -43.453125 C 34.257812 -44.878906 33.8125 -46.019531 33.09375 -46.875 C 32.882812 -47.082031 32.597656 -47.132812 32.234375 -47.03125 C 31.878906 -46.925781 31.671875 -46.625 31.609375 -46.125 Z M 31.609375 -46.125 "/></g></g><g style="fill:#db4c2a;fill-opacity:1;"><g transform="translate(297.343227, 218.308776)"><path style="stroke:none" d="M 61.921875 -67.15625 C 61.992188 -67.082031 62.066406 -66.972656 62.140625 -66.828125 C 62.273438 -65.410156 62.328125 -64.21875 62.296875 -63.25 C 62.265625 -62.289062 62.210938 -61.222656 62.140625 -60.046875 C 62.066406 -58.878906 62.03125 -57.117188 62.03125 -54.765625 C 62.03125 -53.910156 62.097656 -52.664062 62.234375 -51.03125 C 62.378906 -49.394531 62.488281 -48.148438 62.5625 -47.296875 C 62.5625 -46.660156 62.242188 -46.34375 61.609375 -46.34375 C 59.179688 -46.40625 56.398438 -46.523438 53.265625 -46.703125 C 50.140625 -46.890625 47.207031 -47.050781 44.46875 -47.1875 C 41.726562 -47.332031 39.753906 -47.40625 38.546875 -47.40625 C 35.910156 -47.332031 33.613281 -47.117188 31.65625 -46.765625 C 29.695312 -46.410156 28.71875 -45.59375 28.71875 -44.3125 C 28.71875 -42.957031 29.09375 -42.132812 29.84375 -41.84375 C 30.59375 -41.5625 31.25 -41.382812 31.8125 -41.3125 C 33.738281 -40.957031 35.34375 -40.832031 36.625 -40.9375 C 37.90625 -41.050781 39.679688 -41.035156 41.953125 -40.890625 C 44.304688 -40.742188 46.617188 -40.421875 48.890625 -39.921875 C 51.171875 -39.429688 53.203125 -38.4375 54.984375 -36.9375 C 55.984375 -36.082031 57.066406 -34.992188 58.234375 -33.671875 C 59.410156 -32.359375 60.40625 -30.457031 61.21875 -27.96875 C 62.039062 -25.476562 62.453125 -21.957031 62.453125 -17.40625 C 62.453125 -16.40625 62.21875 -14.941406 61.75 -13.015625 C 61.289062 -11.097656 60.390625 -9.109375 59.046875 -7.046875 C 58.398438 -6.117188 57.363281 -5.101562 55.9375 -4 C 54.519531 -2.894531 52.921875 -2.0625 51.140625 -1.5 C 48.796875 -0.78125 46.445312 -0.382812 44.09375 -0.3125 C 41.75 -0.25 40.039062 -0.21875 38.96875 -0.21875 C 38.6875 -0.21875 37.632812 -0.195312 35.8125 -0.15625 C 34 -0.125 31.757812 -0.109375 29.09375 -0.109375 C 26.425781 -0.109375 23.628906 -0.0859375 20.703125 -0.046875 C 17.785156 -0.015625 15.03125 0 12.4375 0 C 9.84375 0 7.742188 0 6.140625 0 C 4.535156 0 3.734375 0 3.734375 0 C 3.097656 0 2.78125 -0.285156 2.78125 -0.859375 C 2.78125 -1.710938 2.796875 -2.566406 2.828125 -3.421875 C 2.859375 -4.273438 2.910156 -5.128906 2.984375 -5.984375 C 3.128906 -8.117188 3.179688 -10.269531 3.140625 -12.4375 C 3.109375 -14.601562 3.09375 -16.753906 3.09375 -18.890625 C 3.09375 -19.535156 3.414062 -19.820312 4.0625 -19.75 C 4.84375 -19.675781 5.785156 -19.640625 6.890625 -19.640625 C 7.992188 -19.640625 9.003906 -19.617188 9.921875 -19.578125 C 10.847656 -19.546875 11.457031 -19.53125 11.75 -19.53125 C 12.8125 -19.46875 14.265625 -19.414062 16.109375 -19.375 C 17.960938 -19.34375 19.921875 -19.359375 21.984375 -19.421875 C 24.054688 -19.492188 26 -19.601562 27.8125 -19.75 C 29.625 -19.894531 31.03125 -20.109375 32.03125 -20.390625 C 33.519531 -20.742188 34.300781 -21.671875 34.375 -23.171875 C 34.445312 -24.023438 34.035156 -24.609375 33.140625 -24.921875 C 32.253906 -25.242188 31.171875 -25.40625 29.890625 -25.40625 C 28.609375 -25.40625 27.328125 -25.351562 26.046875 -25.25 C 24.765625 -25.144531 23.769531 -25.09375 23.0625 -25.09375 C 20.78125 -24.945312 18.550781 -25.035156 16.375 -25.359375 C 14.207031 -25.679688 12.164062 -26.484375 10.25 -27.765625 C 8.820312 -28.679688 7.554688 -29.867188 6.453125 -31.328125 C 5.347656 -32.796875 4.515625 -34.3125 3.953125 -35.875 C 2.742188 -39.070312 2.296875 -42.414062 2.609375 -45.90625 C 2.929688 -49.394531 3.804688 -52.707031 5.234375 -55.84375 C 6.085938 -57.6875 7.15625 -59.351562 8.4375 -60.84375 C 9.71875 -62.34375 11.25 -63.519531 13.03125 -64.375 C 14.519531 -65.09375 16.066406 -65.734375 17.671875 -66.296875 C 19.273438 -66.867188 20.894531 -67.15625 22.53125 -67.15625 Z M 61.921875 -67.15625 "/></g></g></g></svg>