<svg xmlns="http://www.w3.org/2000/svg" xmlns:xlink="http://www.w3.org/1999/xlink" width="1080" zoomAndPan="magnify" viewBox="0 0 810 299.999988" height="400" preserveAspectRatio="xMidYMid meet" version="1.2"><defs/><g id="81eb144d3d"><g style="fill:#db4c2a;fill-opacity:1;"><g transform="translate(4.700927, 224.265914)"><path style="stroke:none" d="M 144.078125 -108.484375 C 144.242188 -106.703125 144.285156 -103.695312 144.203125 -99.46875 C 144.117188 -95.238281 143.957031 -91.007812 143.71875 -86.78125 C 143.476562 -82.5625 143.113281 -79.554688 142.625 -77.765625 C 141.8125 -73.546875 140.46875 -69.078125 138.59375 -64.359375 C 136.726562 -59.648438 133.679688 -55.097656 129.453125 -50.703125 C 125.390625 -46.484375 121.8125 -43.4375 118.71875 -41.5625 C 115.632812 -39.695312 113.035156 -38.195312 110.921875 -37.0625 C 108.328125 -35.59375 104.628906 -34.328125 99.828125 -33.265625 C 95.035156 -32.210938 90.40625 -31.398438 85.9375 -30.828125 C 81.46875 -30.265625 78.335938 -29.984375 76.546875 -29.984375 C 72.804688 -29.984375 70.410156 -29.289062 69.359375 -27.90625 C 68.304688 -26.53125 67.613281 -24.132812 67.28125 -20.71875 C 66.957031 -18.601562 66.796875 -15.796875 66.796875 -12.296875 C 66.796875 -8.804688 66.796875 -5.679688 66.796875 -2.921875 C 66.796875 -0.972656 66.066406 0 64.609375 0 L 8.78125 0 C 7.15625 0 6.34375 -0.972656 6.34375 -2.921875 C 6.34375 -2.921875 6.378906 -4.867188 6.453125 -8.765625 C 6.535156 -12.671875 6.65625 -17.46875 6.8125 -23.15625 C 6.976562 -28.84375 7.101562 -34.445312 7.1875 -39.96875 C 7.269531 -45.5 7.3125 -50.054688 7.3125 -53.640625 C 7.476562 -67.285156 7.4375 -80.972656 7.1875 -94.703125 C 6.945312 -108.441406 6.828125 -122.21875 6.828125 -136.03125 C 6.660156 -141.394531 6.578125 -146.757812 6.578125 -152.125 C 6.578125 -152.9375 7.066406 -153.34375 8.046875 -153.34375 L 102.15625 -153.34375 C 105.082031 -153.34375 108.613281 -152.8125 112.75 -151.75 C 116.894531 -150.695312 121.734375 -148.0625 127.265625 -143.84375 C 131.003906 -140.914062 134.007812 -137.335938 136.28125 -133.109375 C 138.5625 -128.890625 140.3125 -124.582031 141.53125 -120.1875 C 142.75 -115.800781 143.597656 -111.898438 144.078125 -108.484375 Z M 82.640625 -106.78125 C 82.640625 -107.914062 82.554688 -109.378906 82.390625 -111.171875 C 82.234375 -112.960938 81.664062 -114.546875 80.6875 -115.921875 C 79.71875 -117.304688 78.097656 -118 75.828125 -118 C 73.546875 -118 71.875 -117.265625 70.8125 -115.796875 C 69.757812 -114.335938 69.109375 -112.753906 68.859375 -111.046875 C 68.617188 -109.335938 68.5 -108 68.5 -107.03125 C 68.34375 -105.5625 68.222656 -103.160156 68.140625 -99.828125 C 68.054688 -96.503906 67.972656 -93.175781 67.890625 -89.84375 C 67.816406 -86.507812 67.859375 -84.191406 68.015625 -82.890625 C 68.015625 -81.753906 68.132812 -80.25 68.375 -78.375 C 68.625 -76.507812 69.234375 -74.800781 70.203125 -73.25 C 71.179688 -71.707031 72.890625 -70.9375 75.328125 -70.9375 C 78.742188 -70.9375 80.773438 -72.15625 81.421875 -74.59375 C 82.078125 -77.039062 82.484375 -78.992188 82.640625 -80.453125 C 82.640625 -82.078125 82.679688 -84.757812 82.765625 -88.5 C 82.847656 -92.238281 82.890625 -95.894531 82.890625 -99.46875 C 82.890625 -103.039062 82.804688 -105.476562 82.640625 -106.78125 Z M 82.640625 -106.78125 "/></g></g><g style="fill:#db4c2a;fill-opacity:1;"><g transform="translate(146.822035, 224.265914)"><path style="stroke:none" d="M 7.3125 -153.34375 L 74.84375 -153.34375 C 76.632812 -153.34375 77.53125 -152.367188 77.53125 -150.421875 C 77.039062 -145.710938 76.753906 -139.210938 76.671875 -130.921875 C 76.585938 -122.628906 76.546875 -113.644531 76.546875 -103.96875 C 76.546875 -94.300781 76.628906 -84.875 76.796875 -75.6875 C 76.960938 -66.507812 77.082031 -58.425781 77.15625 -51.4375 C 77.238281 -44.445312 77.363281 -39.570312 77.53125 -36.8125 C 77.53125 -31.125 77.691406 -25.472656 78.015625 -19.859375 C 78.335938 -14.253906 78.742188 -8.609375 79.234375 -2.921875 C 79.398438 -0.972656 78.503906 0 76.546875 0 L 7.5625 0 C 6.90625 0 6.660156 -0.40625 6.828125 -1.21875 C 7.148438 -3.332031 7.390625 -7.234375 7.546875 -12.921875 C 7.710938 -18.609375 7.796875 -24.988281 7.796875 -32.0625 C 7.796875 -39.132812 7.753906 -45.796875 7.671875 -52.046875 C 7.597656 -58.304688 7.476562 -63.0625 7.3125 -66.3125 C 7.3125 -70.207031 7.269531 -75.328125 7.1875 -81.671875 C 7.101562 -88.015625 7.019531 -94.84375 6.9375 -102.15625 C 6.863281 -109.46875 6.785156 -116.578125 6.703125 -123.484375 C 6.617188 -130.390625 6.535156 -136.441406 6.453125 -141.640625 C 6.378906 -146.847656 6.34375 -150.425781 6.34375 -152.375 C 6.5 -152.53125 6.820312 -152.851562 7.3125 -153.34375 Z M 7.3125 -153.34375 "/></g></g><g style="fill:#db4c2a;fill-opacity:1;"><g transform="translate(223.854556, 224.265914)"><path style="stroke:none" d="M 144.078125 -69.71875 C 144.078125 -65.820312 144.035156 -61.066406 143.953125 -55.453125 C 143.878906 -49.847656 143.84375 -44 143.84375 -37.90625 C 143.84375 -31.8125 143.800781 -26.082031 143.71875 -20.71875 C 143.632812 -15.351562 143.59375 -10.84375 143.59375 -7.1875 C 143.59375 -3.53125 143.675781 -1.378906 143.84375 -0.734375 C 143.84375 -0.242188 143.679688 0 143.359375 0 L 80.453125 0 C 80.128906 0 79.96875 -0.160156 79.96875 -0.484375 C 79.3125 -2.429688 78.695312 -4.378906 78.125 -6.328125 C 77.5625 -8.285156 76.957031 -10.238281 76.3125 -12.1875 C 74.84375 -16.25 73.660156 -21.003906 72.765625 -26.453125 C 71.878906 -31.898438 70.539062 -36.25 68.75 -39.5 C 67.9375 -41.28125 66.757812 -41.722656 65.21875 -40.828125 C 63.675781 -39.941406 62.90625 -38.441406 62.90625 -36.328125 C 62.570312 -31.128906 62.523438 -25.195312 62.765625 -18.53125 C 63.015625 -11.863281 63.222656 -5.929688 63.390625 -0.734375 C 63.390625 -0.242188 63.226562 0 62.90625 0 L 6.828125 -0.25 C 6.503906 -0.25 6.34375 -0.410156 6.34375 -0.734375 C 6.34375 -14.222656 6.503906 -27.628906 6.828125 -40.953125 C 7.148438 -54.285156 7.3125 -67.695312 7.3125 -81.1875 C 7.3125 -85.738281 7.269531 -91.101562 7.1875 -97.28125 C 7.101562 -103.457031 7.0625 -109.753906 7.0625 -116.171875 C 7.0625 -122.585938 7.019531 -128.597656 6.9375 -134.203125 C 6.863281 -139.816406 6.785156 -144.328125 6.703125 -147.734375 C 6.617188 -151.148438 6.578125 -152.859375 6.578125 -152.859375 C 6.578125 -153.179688 6.738281 -153.34375 7.0625 -153.34375 L 68.265625 -153.34375 C 68.421875 -153.34375 68.582031 -153.179688 68.75 -152.859375 C 69.882812 -149.117188 70.941406 -144.609375 71.921875 -139.328125 C 72.898438 -134.046875 73.957031 -128.765625 75.09375 -123.484375 C 76.226562 -118.203125 77.523438 -113.773438 78.984375 -110.203125 C 79.640625 -108.085938 80.941406 -107.4375 82.890625 -108.25 C 84.347656 -108.738281 85.160156 -110.203125 85.328125 -112.640625 C 85.648438 -116.046875 85.851562 -120.1875 85.9375 -125.0625 C 86.019531 -129.9375 86.0625 -134.894531 86.0625 -139.9375 C 86.0625 -144.976562 86.0625 -149.203125 86.0625 -152.609375 C 86.0625 -153.097656 86.222656 -153.34375 86.546875 -153.34375 L 143.84375 -153.34375 C 144.164062 -153.34375 144.328125 -153.097656 144.328125 -152.609375 C 144.328125 -152.453125 144.328125 -152.289062 144.328125 -152.125 C 144.328125 -138.3125 144.285156 -124.535156 144.203125 -110.796875 C 144.117188 -97.066406 144.078125 -83.375 144.078125 -69.71875 Z M 144.078125 -69.71875 "/></g></g><g style="fill:#db4c2a;fill-opacity:1;"><g transform="translate(366.950792, 224.265914)"><path style="stroke:none" d="M 142.140625 -152.859375 C 142.140625 -146.359375 142.300781 -139.816406 142.625 -133.234375 C 142.945312 -126.648438 142.945312 -120.109375 142.625 -113.609375 C 142.457031 -110.523438 142.289062 -107.394531 142.125 -104.21875 C 141.96875 -101.050781 141.972656 -97.84375 142.140625 -94.59375 C 142.140625 -93.132812 141.488281 -92.320312 140.1875 -92.15625 C 137.582031 -91.832031 134.53125 -91.707031 131.03125 -91.78125 C 127.539062 -91.863281 124.25 -91.863281 121.15625 -91.78125 C 118.070312 -91.707031 116.046875 -91.34375 115.078125 -90.6875 C 114.585938 -90.363281 114.015625 -89.835938 113.359375 -89.109375 C 112.710938 -88.378906 112.226562 -87.28125 111.90625 -85.8125 C 111.738281 -84.507812 111.570312 -81.664062 111.40625 -77.28125 C 111.25 -72.894531 111.171875 -67.65625 111.171875 -61.5625 C 111.171875 -55.46875 111.171875 -49.128906 111.171875 -42.546875 C 111.171875 -35.960938 111.171875 -29.742188 111.171875 -23.890625 C 111.171875 -18.035156 111.171875 -13.15625 111.171875 -9.25 C 111.171875 -5.351562 111.253906 -3.164062 111.421875 -2.6875 C 111.421875 -0.894531 110.6875 0 109.21875 0 L 41.203125 0 C 39.898438 0 39.164062 -0.8125 39 -2.4375 C 39 -4.550781 39.039062 -8.125 39.125 -13.15625 C 39.207031 -18.195312 39.328125 -23.882812 39.484375 -30.21875 C 39.648438 -36.5625 39.8125 -42.863281 39.96875 -49.125 C 40.132812 -55.382812 40.257812 -60.785156 40.34375 -65.328125 C 40.425781 -69.878906 40.382812 -72.804688 40.21875 -74.109375 C 39.894531 -76.546875 39.773438 -78.984375 39.859375 -81.421875 C 39.941406 -83.859375 39.085938 -85.972656 37.296875 -87.765625 C 35.835938 -89.066406 34.253906 -90 32.546875 -90.5625 C 30.835938 -91.132812 29.09375 -91.503906 27.3125 -91.671875 C 25.84375 -91.828125 23.644531 -91.90625 20.71875 -91.90625 C 17.789062 -91.90625 15.148438 -91.90625 12.796875 -91.90625 C 10.441406 -91.90625 9.265625 -91.90625 9.265625 -91.90625 C 7.796875 -91.90625 7.0625 -92.71875 7.0625 -94.34375 C 7.0625 -94.34375 7.0625 -95.441406 7.0625 -97.640625 C 7.0625 -99.835938 7.019531 -102.273438 6.9375 -104.953125 C 6.863281 -107.640625 6.742188 -109.710938 6.578125 -111.171875 C 6.421875 -113.441406 6.257812 -116.726562 6.09375 -121.03125 C 5.925781 -125.34375 5.84375 -129.816406 5.84375 -134.453125 C 5.84375 -139.085938 5.84375 -143.066406 5.84375 -146.390625 C 5.84375 -149.722656 5.84375 -151.554688 5.84375 -151.890625 C 5.84375 -152.859375 6.578125 -153.34375 8.046875 -153.34375 L 141.640625 -153.34375 C 141.640625 -153.34375 141.722656 -153.300781 141.890625 -153.21875 C 142.054688 -153.144531 142.140625 -153.023438 142.140625 -152.859375 Z M 142.140625 -152.859375 "/></g></g><g style="fill:#db4c2a;fill-opacity:1;"><g transform="translate(507.85301, 224.265914)"><path style="stroke:none" d="M 147.5 -13.40625 C 147.988281 -11.132812 148.554688 -8.898438 149.203125 -6.703125 C 149.847656 -4.503906 150.5 -2.269531 151.15625 0 L 84.84375 0 C 84.675781 -1.132812 84.59375 -2.226562 84.59375 -3.28125 C 84.59375 -4.34375 84.59375 -5.441406 84.59375 -6.578125 C 84.101562 -11.128906 83.65625 -15.070312 83.25 -18.40625 C 82.84375 -21.738281 82.234375 -25.351562 81.421875 -29.25 C 80.609375 -32.34375 80.117188 -34.660156 79.953125 -36.203125 C 79.796875 -37.742188 77.6875 -38.597656 73.625 -38.765625 C 70.695312 -38.921875 68.90625 -37.820312 68.25 -35.46875 C 67.601562 -33.113281 67.039062 -29.414062 66.5625 -24.375 C 66.226562 -20.3125 65.898438 -16.25 65.578125 -12.1875 C 65.253906 -8.125 65.09375 -4.0625 65.09375 0 L 5.609375 0 C 8.210938 -11.375 10.363281 -22.867188 12.0625 -34.484375 C 13.769531 -46.109375 15.519531 -57.691406 17.3125 -69.234375 C 19.09375 -81.265625 21.40625 -93.171875 24.25 -104.953125 C 27.101562 -116.734375 29.34375 -128.722656 30.96875 -140.921875 C 31.445312 -145.140625 31.851562 -149.28125 32.1875 -153.34375 L 120.1875 -153.34375 C 121.320312 -141.800781 122.90625 -130.421875 124.9375 -119.203125 C 126.976562 -107.992188 129.132812 -96.863281 131.40625 -85.8125 C 134.007812 -73.789062 136.566406 -61.679688 139.078125 -49.484375 C 141.597656 -37.296875 144.40625 -25.269531 147.5 -13.40625 Z M 72.15625 -105.3125 C 71.34375 -98.65625 70.613281 -92.765625 69.96875 -87.640625 C 69.320312 -82.523438 69.363281 -78.460938 70.09375 -75.453125 C 70.820312 -72.441406 72.734375 -70.859375 75.828125 -70.703125 C 75.984375 -70.703125 76.0625 -70.703125 76.0625 -70.703125 C 76.382812 -70.703125 76.707031 -70.90625 77.03125 -71.3125 C 77.363281 -71.71875 77.691406 -72 78.015625 -72.15625 C 78.992188 -72.320312 79.5625 -73.421875 79.71875 -75.453125 C 79.882812 -77.484375 79.925781 -79.835938 79.84375 -82.515625 C 79.757812 -85.203125 79.640625 -87.519531 79.484375 -89.46875 C 79.316406 -92.71875 79.03125 -95.96875 78.625 -99.21875 C 78.21875 -102.46875 77.203125 -105.070312 75.578125 -107.03125 C 75.085938 -107.519531 74.4375 -107.640625 73.625 -107.390625 C 72.8125 -107.148438 72.320312 -106.457031 72.15625 -105.3125 Z M 72.15625 -105.3125 "/></g></g><g style="fill:#db4c2a;fill-opacity:1;"><g transform="translate(655.824805, 224.265914)"><path style="stroke:none" d="M 141.40625 -153.34375 C 141.5625 -153.1875 141.722656 -152.941406 141.890625 -152.609375 C 142.210938 -149.359375 142.332031 -146.632812 142.25 -144.4375 C 142.175781 -142.25 142.054688 -139.8125 141.890625 -137.125 C 141.722656 -134.445312 141.640625 -130.425781 141.640625 -125.0625 C 141.640625 -123.113281 141.800781 -120.269531 142.125 -116.53125 C 142.457031 -112.789062 142.703125 -109.945312 142.859375 -108 C 142.859375 -106.539062 142.128906 -105.8125 140.671875 -105.8125 C 135.140625 -105.96875 128.796875 -106.25 121.640625 -106.65625 C 114.492188 -107.0625 107.789062 -107.425781 101.53125 -107.75 C 95.28125 -108.082031 90.773438 -108.25 88.015625 -108.25 C 81.992188 -108.082031 76.75 -107.59375 72.28125 -106.78125 C 67.8125 -105.96875 65.578125 -104.097656 65.578125 -101.171875 C 65.578125 -98.085938 66.429688 -96.21875 68.140625 -95.5625 C 69.847656 -94.914062 71.351562 -94.507812 72.65625 -94.34375 C 77.039062 -93.53125 80.695312 -93.242188 83.625 -93.484375 C 86.550781 -93.734375 90.613281 -93.695312 95.8125 -93.375 C 101.175781 -93.050781 106.457031 -92.316406 111.65625 -91.171875 C 116.851562 -90.035156 121.488281 -87.765625 125.5625 -84.359375 C 127.832031 -82.398438 130.304688 -79.914062 132.984375 -76.90625 C 135.671875 -73.90625 137.945312 -69.5625 139.8125 -63.875 C 141.6875 -58.1875 142.625 -50.140625 142.625 -39.734375 C 142.625 -37.460938 142.09375 -34.128906 141.03125 -29.734375 C 139.976562 -25.347656 137.90625 -20.800781 134.8125 -16.09375 C 133.351562 -13.976562 131 -11.660156 127.75 -9.140625 C 124.5 -6.617188 120.84375 -4.707031 116.78125 -3.40625 C 111.414062 -1.78125 106.050781 -0.882812 100.6875 -0.71875 C 95.320312 -0.5625 91.421875 -0.484375 88.984375 -0.484375 C 88.335938 -0.484375 85.941406 -0.441406 81.796875 -0.359375 C 77.648438 -0.285156 72.53125 -0.25 66.4375 -0.25 C 60.34375 -0.25 53.960938 -0.207031 47.296875 -0.125 C 40.628906 -0.0390625 34.328125 0 28.390625 0 C 22.460938 0 17.671875 0 14.015625 0 C 10.359375 0 8.53125 0 8.53125 0 C 7.070312 0 6.34375 -0.648438 6.34375 -1.953125 C 6.34375 -3.898438 6.378906 -5.847656 6.453125 -7.796875 C 6.535156 -9.753906 6.660156 -11.707031 6.828125 -13.65625 C 7.148438 -18.53125 7.269531 -23.445312 7.1875 -28.40625 C 7.101562 -33.363281 7.0625 -38.28125 7.0625 -43.15625 C 7.0625 -44.613281 7.796875 -45.265625 9.265625 -45.109375 C 11.054688 -44.941406 13.207031 -44.859375 15.71875 -44.859375 C 18.238281 -44.859375 20.554688 -44.816406 22.671875 -44.734375 C 24.785156 -44.648438 26.164062 -44.609375 26.8125 -44.609375 C 29.25 -44.453125 32.582031 -44.332031 36.8125 -44.25 C 41.039062 -44.164062 45.507812 -44.203125 50.21875 -44.359375 C 54.9375 -44.523438 59.363281 -44.769531 63.5 -45.09375 C 67.644531 -45.425781 70.859375 -45.914062 73.140625 -46.5625 C 76.554688 -47.375 78.34375 -49.488281 78.5 -52.90625 C 78.664062 -54.851562 77.734375 -56.191406 75.703125 -56.921875 C 73.671875 -57.660156 71.191406 -58.03125 68.265625 -58.03125 C 65.335938 -58.03125 62.410156 -57.90625 59.484375 -57.65625 C 56.554688 -57.414062 54.28125 -57.296875 52.65625 -57.296875 C 47.457031 -56.960938 42.378906 -57.160156 37.421875 -57.890625 C 32.460938 -58.628906 27.789062 -60.460938 23.40625 -63.390625 C 20.15625 -65.503906 17.269531 -68.222656 14.75 -71.546875 C 12.226562 -74.878906 10.316406 -78.335938 9.015625 -81.921875 C 6.253906 -89.234375 5.238281 -96.867188 5.96875 -104.828125 C 6.695312 -112.796875 8.691406 -120.351562 11.953125 -127.5 C 13.898438 -131.726562 16.332031 -135.546875 19.25 -138.953125 C 22.175781 -142.367188 25.675781 -145.054688 29.75 -147.015625 C 33.15625 -148.640625 36.6875 -150.097656 40.34375 -151.390625 C 44 -152.691406 47.695312 -153.34375 51.4375 -153.34375 Z M 141.40625 -153.34375 "/></g></g></g></svg>